<svg width="100" height="24" viewBox="0 0 100 24" fill="none" xmlns="http://www.w3.org/2000/svg">
<path d="M77.0775 10.2484C77.0775 10.2484 77.591 11.4165 78.7115 12.4446C78.8516 12.3511 79.5985 11.7903 79.8319 10.482H82.0262C82.0262 10.482 81.5594 12.4446 80.0186 13.4258C80.7657 13.7996 81.6059 14.08 82.633 14.08V15.4351C82.633 15.4351 77.8244 15.7622 75.8637 10.7623L77.0775 10.2484ZM89.6825 6.08958C89.3558 7.30442 88.6088 8.09886 87.8151 8.61292V15.4351H85.6209V9.50072C84.8339 9.67572 84.2107 9.68685 84.1348 9.68753H84.127V8.28577C87.1615 7.95862 87.6284 6.08958 87.5817 6.08958H89.6825ZM80.7656 3.28586C81.5593 3.28586 82.2129 3.94016 82.2129 4.7345V8.23909C82.2129 9.03343 81.5593 9.68763 80.7656 9.68763H75.07V13.7529C75.07 14.1735 75.4388 14.2202 75.5368 14.2202H77.451V15.435H74.2297C72.7824 15.435 72.8758 14.1735 72.8758 14.1735V4.7345C72.8758 3.94016 73.5294 3.28596 74.323 3.28596L80.7656 3.28586ZM72.1755 7.07083V8.23909H70.168V9.54739H72.1755V10.7157H70.168V13.7996C70.1695 13.8008 70.2261 13.8397 71.0084 13.379C71.7637 12.9344 72.1384 12.5744 72.1729 12.5406L72.1755 12.538V13.8931C72.1755 13.8931 71.4753 14.4071 70.5883 14.8277C69.141 15.5286 67.9271 15.3883 67.9271 15.3883V10.6689H66.3398V9.50072H67.9271V8.19231H66.3398V7.07083H72.1755ZM100 6.79056V8.0054H98.366V13.1921C98.366 15.3445 96.2587 15.3874 96.1744 15.3884H91.55V14.1735H94.5378C96.2185 14.1735 96.1718 12.9585 96.1718 12.9585V7.95872H90.1027V6.79056H100ZM39.8558 10.9254V11.6708H46.8254V12.9286H39.8558V15.3513H37.3767V12.8822H30.6877V11.6708H37.3767V10.9254H39.8558ZM64.3324 3.28596V4.26721H57.6562C57.5629 4.59436 57.4228 4.96809 57.3761 5.06155H62.9317C63.3985 5.06155 63.8187 5.48216 63.8187 5.94944V9.08011C63.8187 9.73441 63.3052 10.2484 62.6516 10.2484H53.4079C53.3145 10.482 53.2212 10.7157 53.0811 10.9025H63.772C63.772 12.6315 59.8038 13.7996 59.8038 13.7996C61.1763 14.0743 64.2079 14.035 64.3286 14.0333H64.3323V15.3416C60.0372 15.4351 57.3295 14.5005 57.3295 14.5005C54.8589 15.3247 49.8774 15.2964 49.6792 15.295H49.6731V14.0331C52.4639 14.1247 54.7168 13.7675 54.8057 13.7533L54.8085 13.7528C53.1745 13.2855 52.1473 12.4911 51.8673 12.2576C50.6068 13.3323 49.253 13.893 49.253 13.893L48.4126 12.7715C50.2333 11.8837 50.8869 10.809 51.1203 10.2483H50.6068C49.9532 10.2483 49.4396 9.73421 49.4396 9.08001V5.94935C49.4396 5.43528 49.8598 5.06145 50.3266 5.06145H55.0885C55.2286 4.78118 55.2754 4.45403 55.3219 4.26712H48.8327V3.28606H64.3323L64.3324 3.28596ZM60.2708 11.837H54.2483C55.8823 12.9585 57.3296 13.1921 57.3296 13.1921C58.7301 13.0052 60.2708 11.837 60.2708 11.837ZM40.8381 3.00559V5.94056C41.9607 5.42815 43.1301 4.72932 44.0188 3.751H46.2172C46.2172 3.751 45.0011 6.0804 40.838 7.52454V8.45628C40.838 8.45628 40.7913 9.20169 41.5865 9.20169H46.7786V10.5062H40.1758C40.0586 10.5042 38.5928 10.4559 38.5928 9.24837V8.17669C38.0316 8.31644 37.4235 8.4096 36.7686 8.50286V7.10521C36.7686 7.10521 37.517 7.01204 38.5928 6.73245V3.00549H40.838L40.8381 3.00559ZM37.2364 3.00559C36.8154 4.31008 35.8799 5.19524 34.8975 5.75423V10.4596H32.6524V6.54622C31.5874 6.81146 30.7749 6.82503 30.6944 6.82571H30.6877V5.42815C34.2427 5.33499 35.2717 3.00559 35.2717 3.00559H37.2364ZM61.1111 5.90267H52.1941C51.914 5.90267 51.6806 6.13636 51.6806 6.41673V6.46341H60.3641V7.3512H51.6806V7.91194H60.3641V8.79984H51.6806V8.84651C51.6806 9.12679 51.914 9.36048 52.1942 9.36048H61.1111C61.3912 9.36048 61.6246 9.12689 61.6246 8.84651V6.46341C61.6246 6.18313 61.3912 5.90267 61.1111 5.90267ZM79.6919 4.40745H75.3034C75.1634 4.40745 75.07 4.50091 75.07 4.64104V5.85589H78.9916V7.07083H75.07V8.19231C75.07 8.33255 75.1634 8.42601 75.3034 8.42601H79.6919C79.8319 8.42601 79.9253 8.33255 79.9253 8.19231V4.64104C79.9253 4.50091 79.8319 4.40745 79.6919 4.40745ZM71.1017 3.00559C70.915 3.61301 70.6816 4.0803 70.4015 4.45413H72.1755V5.71585H68.9543C67.647 6.51018 66.2931 6.65032 66.2931 6.65032V5.34192C68.4874 4.7345 68.9075 3.00559 68.9075 3.00559H71.1017ZM89.7292 3.05227C89.7292 3.05227 88.9355 4.68782 87.4416 5.62229C85.9943 6.55687 84.127 6.60364 84.127 6.60364V5.20179C84.127 5.20179 85.2475 5.10833 86.2278 4.50091C87.0262 3.96819 87.4874 3.09807 87.4915 3.05247V3.05227H89.7292ZM99.3931 3.51956V4.7345H90.5695V3.51966H99.3931V3.51956ZM34.3168 17.3795V18.7565H32.7024V17.3795H31.6578V21.0832H32.7024V19.5163H34.3168V21.0832H35.3615V17.3795H34.3168ZM41.1022 19.4651C41.1022 19.7495 41.1022 19.939 41.0548 20.0338C41.0548 20.1286 40.9601 20.2234 40.8653 20.2708C40.7705 20.3656 40.5809 20.3656 40.3438 20.3656C40.1069 20.3656 39.9172 20.3182 39.7751 20.2234C39.6329 20.1287 39.5855 20.0338 39.5381 19.939C39.5381 19.8916 39.4907 19.7495 39.4907 19.3703V17.3795H38.4479V19.3703C38.4479 19.7968 38.4954 20.0812 38.5427 20.2708C38.5901 20.413 38.6849 20.5552 38.8271 20.6974C38.9693 20.8396 39.1589 20.9344 39.3959 21.0292C39.6329 21.124 39.9647 21.1714 40.3913 21.1714C40.7705 21.1714 41.0548 21.124 41.2919 21.0766C41.5289 20.9819 41.7184 20.887 41.8606 20.7922C42.0028 20.65 42.0976 20.5079 42.145 20.3182C42.1924 20.1287 42.2398 19.8442 42.2398 19.3703V17.4269H41.1022V19.465V19.4651ZM47.7018 17.3795H46.6067L44.7971 21.0832H45.94L46.3209 20.276H47.7019L47.321 19.5163H46.6543L47.1781 18.4716L48.4638 21.0832H49.559L47.7019 17.3795H47.7018ZM65.1623 17.3795H64.1146L62.2575 21.0832H63.4004L63.7812 20.276H65.1623L64.7813 19.5163H64.1622L64.6385 18.4716L65.9241 21.0832H67.0194L65.1623 17.3795ZM82.6632 17.3795H81.6155L79.806 21.0832H80.9488L81.3298 20.276H82.7107L82.3299 19.5163H81.6632L82.1394 18.4716L83.4726 21.0832H84.5679L82.6632 17.3795ZM54.5633 19.1364L56.0308 17.3795H54.7525L53.9005 18.3766L53.0957 17.3795H51.8174L53.285 19.1364L51.6755 21.0832H53.0009L53.9005 19.9436L54.8472 21.0832H56.1728L54.5633 19.1364ZM58.642 17.3795H59.7002V21.0832H58.642V17.3795ZM89.9199 17.3795V19.6112L88.2105 17.3795H87.2135V21.0832H88.2105V18.9465L89.9199 21.0832H90.9171V17.3795H89.92H89.9199ZM96.4902 18.8515L98.2775 17.3795H96.8194L95.1264 18.8515V17.3795H94.0918V21.0832H95.1265V19.9911L95.785 19.4688L97.0548 21.0832H98.3246L96.4904 18.8515H96.4902ZM76.627 19.1364C76.7218 19.0889 76.8164 18.9939 76.911 18.899C77.0529 18.7565 77.1003 18.5665 77.1003 18.3766C77.1003 18.1868 77.0529 18.0443 76.9583 17.9018C76.8637 17.7594 76.7303 17.6471 76.5884 17.5522C76.4464 17.4572 76.1329 17.3795 75.9273 17.3795H73.4568V21.0832H75.0656C75.6334 21.0832 75.7918 21.0766 76.105 21.0766C76.4181 21.0766 76.6571 20.9918 76.8221 20.8835C76.9869 20.7751 77.1003 20.6083 77.1949 20.466C77.2895 20.3234 77.331 20.181 77.331 19.9911C77.331 19.8011 77.2474 19.5872 77.1003 19.4213C76.9532 19.2553 76.8164 19.1838 76.627 19.1364ZM74.5626 18.1732H75.7543C75.8974 18.1732 76.1342 18.2251 76.1342 18.4716C76.1342 18.7181 75.8974 18.7962 75.7543 18.7962H74.801V19.563H75.1823C75.5637 19.563 75.7481 19.563 75.9274 19.5637C76.1066 19.5644 76.2802 19.7146 76.2802 19.9911C76.2802 20.2676 76.0446 20.3778 75.8974 20.3778H74.515V18.1732H74.5627H74.5626Z" fill="black"/>
<path d="M16.0847 0.72144C16.1317 0.768511 16.4139 1.66265 16.7431 1.85084C17.0723 1.99205 18.3892 1.61558 19.0006 2.46265C19.2828 3.0274 18.8595 3.26265 19.2358 3.59205C21.6344 5.00387 22.0576 3.26265 22.9983 4.86256C23.4215 6.2274 21.3522 5.94498 20.8348 7.45084C20.6938 7.16862 20.1293 6.88619 19.9412 6.74498C18.2481 5.70973 16.2728 5.28619 14.2034 5.85084C10.2528 6.93326 7.90128 10.8862 8.93585 14.8391C10.0177 18.7921 14.0153 21.0979 17.9659 20.0156C19.1417 19.6862 20.5527 18.9333 21.3992 18.1803C22.1047 17.6627 22.716 16.7685 23.3275 16.4862L23.3077 16.5108C23.2233 16.618 22.892 17.0526 22.8102 17.3803L22.8212 17.3819C22.8665 17.3861 23.0509 17.3812 23.3745 17.0979C23.7508 16.7215 23.9859 16.0627 23.9859 16.0627C23.9389 16.298 24.127 16.9097 23.4215 17.7568L23.3813 17.8101C22.9719 18.3479 22.5765 18.745 22.622 18.745C22.7631 18.6979 22.9983 18.5096 23.3275 18.3215C23.6097 18.1333 23.986 17.3803 23.986 17.3803C23.986 17.7097 23.5156 19.0273 22.9512 19.7333C22.1112 20.8834 21.105 21.6593 20.9873 21.7482L20.9131 21.8036C20.3691 22.2081 19.8071 22.569 18.7654 22.8862C12.6984 24.5333 6.53731 20.9568 4.93829 14.9803C4.56202 13.5685 4.56202 11.9686 4.65606 10.4627L4.60704 10.491C4.38194 10.6171 3.40977 11.1215 2.25742 11.1215C0.893555 11.1215 0 10.0391 0 8.76852C0 7.59206 1.36387 6.03912 1.36387 6.08619L1.3624 6.14283C1.35967 6.39801 1.40957 7.40905 2.53965 7.45084C5.0794 7.21559 6.30215 5.23912 8.27745 3.59205L8.55968 3.3567C9.71622 2.38472 11.1002 1.59478 12.846 1.12134L12.9336 1.09791C13.9683 0.81568 15.05 0.67437 16.0847 0.72144ZM19.424 10.1482C20.0321 10.1482 20.5468 10.6693 20.5468 11.2851V14.7431C20.5468 15.3591 20.0321 15.8801 19.424 15.8801H13.9975C13.3894 15.8801 12.8748 15.3591 12.8748 14.7432V11.2851C12.8748 10.6693 13.3895 10.1482 13.9975 10.1482H19.424Z" fill="#D80C18"/>
</svg>
